# xmcd
#
# Track frame offsets:
#	150
#	16035
#	32835
#	46594
#	62296
#	76172
#	93873
#	103935
#	126598
#	143480
#	160470
#	180667
#	197802
#	213593
#	227193
#	244602
#	262882
#	279619
#	297719
#	316652
#
# Disc length: 4492 seconds
#
# Revision: 0
# Processed by: cddbd v1.5.2PL0 Copyright (c) Steve Scherf et al.
# Submitted via: EasyCDDAExtractor 5.0.5.1
#
DISCID=14118a14
DTITLE=方大同 - Timeless 可啦思刻
DYEAR=2009
DGENRE=Blues
TTITLE0=Bad
TTITLE1=Wonderful Tonight
TTITLE2=You Are the Sunshine of My Life
TTITLE3=Nothing's Gonna Change My Love For You
TTITLE4=Moon River
TTITLE5=Red Bean
TTITLE6=狂潮
TTITLE7=La Bamba
TTITLE8=Georgia on My Mind
TTITLE9=Remember
TTITLE10=Love Song
TTITLE11=四人游
TTITLE12=愛愛愛
TTITLE13=未來
TTITLE14=詩人的情人
TTITLE15=愛在
TTITLE16=夠不夠
TTITLE17=公園
TTITLE18=叫我怎麼說
TTITLE19=忘了美麗
EXTD=
EXTT0=
EXTT1=
EXTT2=
EXTT3=
EXTT4=
EXTT5=
EXTT6=
EXTT7=
EXTT8=
EXTT9=
EXTT10=
EXTT11=
EXTT12=
EXTT13=
EXTT14=
EXTT15=
EXTT16=
EXTT17=
EXTT18=
EXTT19=
PLAYORDER=
